<svg width="89" height="30" viewBox="0 0 89 30" fill="none" xmlns="http://www.w3.org/2000/svg">
<g clip-path="url(#clip0)">
<path d="M53.0433 9.94549C53.148 9.34423 53.148 8.72856 53.0433 8.1273C52.7212 6.27276 51.3357 4.76367 48.7237 4.71821L45.1366 4.64094L38.9199 4.54549L36.0166 10.35L37.3138 10.2455L33.8105 26.1546H43.835C44.2708 26.154 44.7053 26.1083 45.1322 26.0182C49.8444 25.0546 54.4684 19.2 49.8312 14.5364C50.6714 14.0747 51.3977 13.4209 51.9545 12.625C52.5113 11.8292 52.8837 10.9126 53.0433 9.94549ZM45.1366 20.7637C44.9043 20.9426 44.6236 21.0427 44.3336 21.05H40.7289L41.9157 16.2682H44.616C44.7876 16.2662 44.959 16.2815 45.1278 16.3137C47.2809 16.7364 46.5221 19.8137 45.1366 20.7637ZM46.0191 13.0364H42.6217L43.6277 8.78185H46.6191C48.2119 8.80003 48.009 13.0546 46.0235 13.0546L46.0191 13.0364Z" fill="#005CAA"/>
<path d="M88.6851 26.3636L86.8761 4.84541H77.2752L74.4734 10.25H75.4794L70.5642 21.2181L68.3582 26.1363H74.9764L76.3751 22.1818H81.5991V26.3636H88.6851ZM79.7725 17.9272H77.9635L79.7725 14.1863L81.5815 10.4454V17.9272H79.7725Z" fill="#005CAA"/>
<path d="M59.1234 15.8455C59.4896 12.45 65.905 9.52273 70.2554 12.7364L70.5466 12.0136L72.7527 6.6091L70.5466 5.34091L68.2566 4.01364L67.864 5.25C65.1946 5.4591 58.1572 2.97728 53.8288 14.0909C53.4369 15.1131 53.1715 16.1822 53.039 17.2727C52.9513 18.0656 52.9513 18.8662 53.039 19.6591C53.5508 23.8682 56.9615 27.4773 65.7593 26.4773L68.0493 20.1409C61.3869 22.2727 58.7749 19.3909 59.1234 15.8455Z" fill="#005CAA"/>
<path d="M25.8379 2.72727L25.8114 2.69091H25.7717C22.1252 0.979389 18.1744 0.0632359 14.1677 0C10.2021 0.0470443 6.29167 0.962772 2.69602 2.68636L2.64749 2.72727L2.62102 2.78182C2.59896 2.81364 0.000180206 7.7 0.000180206 14.95C-0.0377655 19.1924 0.858301 23.3884 2.62102 27.2227L2.64749 27.2727L2.70044 27.3C6.34772 29.0153 10.3 29.9345 14.3089 30C18.2745 29.9531 22.185 29.0374 25.7806 27.3136H25.807L25.8291 27.2909C25.9526 27.1591 28.8073 24.0045 28.8073 14.4864C28.7985 6.71364 25.9615 2.9 25.8379 2.72727ZM25.5644 26.9591C22.0342 28.6416 18.1983 29.5354 14.3089 29.5818C10.385 29.5266 6.51379 28.6433 2.93428 26.9864C1.22547 23.2199 0.355651 19.1075 0.388452 14.95C0.347035 10.8233 1.21921 6.74108 2.93869 3.01364C6.46196 1.33958 10.2881 0.449025 14.1677 0.4C18.0995 0.460406 21.9772 1.35314 25.56 3.02273C26.1404 3.89211 26.6132 4.83271 26.9674 5.82273C27.9634 8.58473 28.4541 11.5129 28.4146 14.4591C28.4102 23.3864 25.8203 26.6727 25.5644 26.9727V26.9591Z" fill="#005CAA"/>
<path d="M14.4012 2.69994C14.4012 2.69994 9.73755 2.60903 9.73755 7.07267C9.73755 11.5363 14.035 11.2227 14.035 16.6181V22.7272H14.763V16.6363C14.763 11.2227 19.0605 11.5318 19.0605 7.09085C19.0605 2.64994 14.4012 2.69994 14.4012 2.69994Z" fill="#005CAA"/>
<path d="M7.8759 17.3637C10.1923 17.991 13.1705 19.4137 13.1705 22.7228H13.5147V17.3046C13.5147 14.8774 11.388 10.1137 8.34359 10.1137C5.29918 10.1137 4.5094 12.8955 4.5094 14.0637C4.53146 15.641 5.4889 16.7137 7.8759 17.3637Z" fill="#005CAA"/>
<path d="M9.21249 21.1499C11.22 20.6954 12.1554 21.7727 12.3275 22.7227H12.6452C12.8172 20.8318 11.0921 18.5181 8.04767 18.0136C5.00326 17.509 4.85325 16.4545 4.85325 16.4545C3.36634 19.2545 4.60176 22.1999 9.21249 21.1499Z" fill="#005CAA"/>
<path d="M20.768 17.3637C23.155 16.7183 24.1124 15.641 24.1124 14.0637C24.1124 12.8955 23.3227 10.1137 20.2783 10.1137C17.2338 10.1137 15.1072 14.8774 15.1072 17.3046V22.7274H15.4425C15.4425 19.4092 18.4472 17.991 20.768 17.3637Z" fill="#005CAA"/>
<path d="M20.5961 18.0136C17.5517 18.5181 15.8265 20.8318 15.9986 22.7227H16.3251C16.4972 21.7727 17.4325 20.6954 19.4401 21.1499C24.042 22.1999 25.2774 19.2545 23.8258 16.4545C23.8258 16.4545 23.6405 17.509 20.5961 18.0136Z" fill="#005CAA"/>
<path d="M7.66375 25.9909L8.0829 26.1454L7.93289 26.6C7.8799 26.623 7.82269 26.6338 7.76523 26.6318C7.67741 26.6263 7.59102 26.6063 7.50932 26.5727C7.44512 26.5508 7.38667 26.514 7.33847 26.4652C7.29027 26.4163 7.25362 26.3567 7.23135 26.2909C7.18052 26.1439 7.18052 25.9833 7.23135 25.8363L7.3946 25.3818C7.43955 25.2328 7.53306 25.1043 7.65933 25.0182C7.71479 24.9806 7.77819 24.9572 7.84422 24.9501C7.91025 24.943 7.97697 24.9523 8.03878 24.9773C8.14617 25.0095 8.23764 25.0827 8.29469 25.1818C8.31571 25.2312 8.32656 25.2846 8.32656 25.3386C8.32656 25.3926 8.31571 25.446 8.29469 25.4954L8.70502 25.6454C8.75715 25.5463 8.78446 25.4354 8.78446 25.3227C8.78446 25.21 8.75715 25.0991 8.70502 25C8.58058 24.7962 8.38722 24.6472 8.16232 24.5818C8.04793 24.5347 7.92524 24.5128 7.80213 24.5175C7.67903 24.5222 7.55824 24.5534 7.44755 24.6091C7.33563 24.6671 7.23618 24.7477 7.15508 24.8461C7.07398 24.9445 7.01289 25.0586 6.97544 25.1818L6.81219 25.6363C6.76191 25.7554 6.73596 25.8838 6.73596 26.0136C6.73596 26.1434 6.76191 26.2719 6.81219 26.3909C6.86736 26.508 6.94511 26.6124 7.04068 26.6975C7.13626 26.7827 7.24767 26.847 7.36813 26.8863C7.54447 26.9592 7.73448 26.9903 7.92406 26.9773C8.05984 26.9659 8.19122 26.9224 8.30792 26.85L8.60795 25.9863L7.75199 25.6727L7.66375 25.9909Z" fill="#005CAA"/>
<path d="M9.91848 25.0865L9.13311 24.9365L8.69189 27.2728L9.13311 27.3592L9.30078 26.4228L9.66257 26.491C9.71123 26.4965 9.75827 26.5123 9.80078 26.5373C9.84328 26.5623 9.88034 26.5961 9.90966 26.6365C9.93557 26.6794 9.95282 26.7273 9.9604 26.7773C9.96798 26.8273 9.96573 26.8783 9.95378 26.9274L9.92289 27.091C9.90981 27.1676 9.90243 27.2451 9.90083 27.3228C9.89357 27.389 9.91091 27.4556 9.94937 27.5092L10.4171 27.6001V27.5683C10.3777 27.5181 10.3559 27.4556 10.3553 27.391C10.3471 27.3216 10.3471 27.2514 10.3553 27.1819L10.3862 27.0092C10.4116 26.8864 10.4024 26.7586 10.3597 26.641C10.3096 26.5257 10.2201 26.4335 10.1082 26.3819C10.2231 26.3582 10.3297 26.3033 10.4171 26.2228C10.4962 26.1451 10.5488 26.043 10.5671 25.9319C10.589 25.8363 10.5889 25.7368 10.5667 25.6412C10.5445 25.5457 10.5008 25.4569 10.4391 25.3819C10.3004 25.229 10.1181 25.1256 9.91848 25.0865ZM10.1479 25.8683C10.1428 25.9142 10.1279 25.9584 10.1042 25.9977C10.0806 26.037 10.0488 26.0704 10.0111 26.0956C9.91733 26.1406 9.81113 26.1503 9.71111 26.1228L9.38902 26.0592L9.51256 25.3774L9.84347 25.441C9.94549 25.4522 10.0391 25.5045 10.1038 25.5865C10.1302 25.6275 10.1478 25.6739 10.1554 25.7225C10.163 25.7711 10.1605 25.8208 10.1479 25.8683Z" fill="#005CAA"/>
<path d="M12.2042 26.941C12.2035 27.0078 12.1895 27.0738 12.1629 27.1348C12.1363 27.1958 12.0978 27.2505 12.0498 27.2955C12.0009 27.3346 11.9448 27.3632 11.8849 27.3796C11.825 27.396 11.7626 27.3999 11.7012 27.391C11.6401 27.3896 11.5799 27.3752 11.5244 27.3486C11.469 27.322 11.4195 27.2838 11.3792 27.2364C11.3401 27.1839 11.3118 27.1238 11.2959 27.0598C11.28 26.9957 11.2768 26.929 11.2865 26.8637L11.41 25.3137L10.9688 25.2728L10.8232 26.8182C10.808 26.9357 10.8188 27.0551 10.8547 27.1677C10.8906 27.2802 10.9507 27.383 11.0306 27.4682C11.2045 27.6403 11.4338 27.7406 11.6748 27.75C11.9135 27.7803 12.1549 27.7205 12.3543 27.5819C12.4468 27.5117 12.5227 27.4209 12.5762 27.3162C12.6297 27.2115 12.6594 27.0956 12.6631 26.9773L12.7955 25.4273L12.3543 25.3864L12.2042 26.941Z" fill="#005CAA"/>
<path d="M13.8938 25.4545H13.0114V27.8318H13.4526V26.9681H13.8938C14.1195 26.9837 14.3427 26.9124 14.5203 26.7681C14.5927 26.6972 14.6503 26.6119 14.6896 26.5174C14.729 26.4228 14.7493 26.321 14.7493 26.2181C14.7493 26.1153 14.729 26.0135 14.6896 25.9189C14.6503 25.8244 14.5927 25.7391 14.5203 25.6681C14.3448 25.5186 14.1212 25.4423 13.8938 25.4545ZM14.1806 26.4954C14.1412 26.5332 14.0945 26.5621 14.0436 26.5801C13.9926 26.5981 13.9386 26.6049 13.885 26.6H13.4437V25.8H13.885C13.9385 25.7966 13.9922 25.805 14.0424 25.8246C14.0926 25.8442 14.1382 25.8745 14.1762 25.9136C14.2434 25.9925 14.2782 26.0952 14.2732 26.2C14.2777 26.302 14.2428 26.4017 14.1762 26.4772L14.1806 26.4954Z" fill="#005CAA"/>
<path d="M17.9971 26.5228C17.906 26.4243 17.7806 26.3671 17.6486 26.3637C17.7412 26.3178 17.8174 26.2431 17.8665 26.1501C17.9156 26.0571 17.935 25.9506 17.9221 25.8455C17.917 25.7517 17.8887 25.6608 17.8401 25.5813C17.7915 25.5018 17.7241 25.4363 17.6441 25.391C17.4424 25.292 17.2161 25.2587 16.9956 25.2955L16.2455 25.3774L16.4882 27.741L17.3706 27.6455C17.5911 27.6365 17.8023 27.5517 17.9706 27.4046C18.0374 27.3351 18.087 27.2501 18.1154 27.1568C18.1438 27.0635 18.1501 26.9646 18.1339 26.8683C18.1267 26.7407 18.0786 26.6192 17.9971 26.5228ZM16.7661 25.691L17.0573 25.6592C17.1623 25.6396 17.2707 25.6555 17.3662 25.7046C17.4033 25.7302 17.434 25.7646 17.4555 25.805C17.477 25.8453 17.4887 25.8904 17.4897 25.9364C17.4967 25.9792 17.4935 26.023 17.4804 26.0641C17.4674 26.1053 17.4448 26.1426 17.4147 26.1728C17.3362 26.2397 17.2385 26.278 17.1367 26.2819L16.8279 26.3137L16.7661 25.691ZM17.6486 27.1683C17.5739 27.2364 17.479 27.2764 17.3794 27.2819L16.9382 27.3274L16.8676 26.6455L17.3088 26.6001C17.4116 26.5808 17.5177 26.6037 17.6044 26.6637C17.6412 26.6949 17.6712 26.7336 17.6925 26.7775C17.7137 26.8213 17.7258 26.8693 17.728 26.9183C17.7297 26.9664 17.7202 27.0142 17.7002 27.0577C17.6803 27.1012 17.6504 27.1391 17.6133 27.1683H17.6486Z" fill="#005CAA"/>
<path d="M20.1106 26.3637L19.6694 26.4546C19.7028 26.5745 19.6901 26.7031 19.6341 26.8137C19.6013 26.8611 19.5592 26.901 19.5106 26.9308C19.462 26.9605 19.4079 26.9795 19.3517 26.9864C19.2874 27.0025 19.2202 27.0018 19.1563 26.9843C19.0923 26.9668 19.0336 26.9332 18.9855 26.8864C18.8766 26.7744 18.8055 26.6295 18.7825 26.4728L18.6943 26.0182C18.6594 25.867 18.6702 25.7084 18.7252 25.5637C18.7495 25.5029 18.7887 25.4495 18.839 25.4089C18.8892 25.3683 18.9488 25.3418 19.012 25.3319C19.0693 25.3151 19.1294 25.3105 19.1886 25.3183C19.2477 25.3261 19.3047 25.3462 19.3561 25.3773C19.4032 25.4152 19.4424 25.4625 19.4712 25.5164C19.5 25.5703 19.5179 25.6297 19.5238 25.6909L19.965 25.6C19.9522 25.4892 19.9149 25.3828 19.856 25.289C19.7971 25.1952 19.7182 25.1166 19.6253 25.0591C19.4127 24.9475 19.1678 24.92 18.937 24.9819C18.8167 25.0018 18.702 25.0483 18.6007 25.1181C18.4994 25.188 18.414 25.2795 18.3501 25.3864C18.2208 25.6107 18.1812 25.878 18.2398 26.1319L18.3281 26.5864C18.3477 26.7147 18.3916 26.8378 18.4575 26.9486C18.5234 27.0593 18.6099 27.1556 18.7119 27.2319C18.8143 27.3049 18.9305 27.3549 19.053 27.3784C19.1754 27.4019 19.3013 27.3984 19.4223 27.3682C19.6528 27.3353 19.8625 27.2135 20.0091 27.0273C20.072 26.9371 20.1146 26.8336 20.1337 26.7243C20.1528 26.6149 20.1479 26.5026 20.1194 26.3955L20.1106 26.3637Z" fill="#005CAA"/>
<path d="M20.4637 24.6001L20.4902 27.1092L20.9314 26.9455V26.4092L21.6374 26.1546L21.9507 26.5864L22.3919 26.4228L20.9138 24.4364L20.4637 24.6001ZM20.905 26.0182L20.8785 25.141L21.3859 25.8455L20.905 26.0182Z" fill="#005CAA"/>
</g>
<defs>
<clipPath id="clip0">
<rect width="89" height="30" fill="white"/>
</clipPath>
</defs>
</svg>
