<svg width="117" height="30" viewBox="0 0 117 30" fill="none" xmlns="http://www.w3.org/2000/svg">
<path fill-rule="evenodd" clip-rule="evenodd" d="M5.01274 1.47108C3.24106 1.56705 1.63476 2.62867 0.976078 4.19957C0.532135 5.25659 0.4622 5.75566 0.4622 7.06197V17.2551C0.4622 19.4883 0.399243 21.8154 0.464243 24.0381C0.523458 26.0224 1.91484 27.4185 3.20362 28.0848C4.15906 28.5783 4.88665 28.5739 6.08457 28.5739H23.0601C25.0223 28.5783 26.4275 27.1107 27.0731 25.8447C27.5713 24.8707 27.5769 24.1802 27.5769 22.9556L27.5781 5.98044C27.5769 4.94809 27.1539 4.08386 26.6916 3.47299C26.2299 2.86246 25.6453 2.3525 24.8141 1.93663C23.829 1.44556 23.1458 1.46325 21.9367 1.46325H8.37337C7.28963 1.46325 6.07419 1.41374 5.01274 1.47108ZM20.4793 4.11993C23.2848 4.07331 25.0479 3.85432 25.0017 7.76915L24.9275 11.5545C24.8911 15.4989 24.9451 19.5546 24.9275 23.5255L16.4967 14.9673C16.5815 14.7198 17.3084 13.986 17.4918 13.8087L18.6482 12.7607C18.872 12.5416 19.0072 12.457 19.2133 12.2428C19.8391 11.5919 20.0415 11.5644 20.8403 10.5419C21.7088 9.4287 21.853 8.88232 21.857 7.14501C21.8616 5.26561 20.7287 4.79206 20.4793 4.11993ZM13.2544 4.12282C13.7563 4.0922 15.6112 4.06446 16.0261 4.15022C17.364 4.42554 18.8413 5.53157 18.8565 7.0196C18.868 8.18603 18.7185 8.47513 18.1614 9.19575C17.4471 10.1199 15.6015 11.9392 14.6182 12.7665C14.214 13.1068 12.4944 14.7307 12.5239 15.0087L19.103 21.7522C19.8505 22.5333 22.8777 25.4227 23.0352 25.8328L13.4478 25.8364C13.5326 25.6335 13.7398 25.3632 13.8717 25.1665C14.3765 24.405 14.634 23.6771 14.6447 22.7073C14.6685 20.6156 13.7927 19.6343 12.5319 18.3387L9.38615 15.0087C9.95005 14.3233 9.58762 14.6844 10.3702 13.8848C11.0597 13.1817 12.0464 12.4235 12.5948 11.8249C12.9193 11.4697 13.284 11.0864 13.5708 10.6367C14.197 9.66045 14.5751 8.71182 14.4467 7.226C14.2585 5.06448 13.3946 4.75275 13.2544 4.12282ZM5.40564 15.0502C5.61068 15.406 7.19893 17.0508 7.49195 17.3458L9.67797 19.5705C10.4413 20.5436 10.9581 20.9746 10.9375 22.7073C10.9223 23.9318 9.91483 24.9806 9.24509 25.4069C8.57569 25.8328 8.37507 25.8364 7.45825 25.8364C6.72283 25.8364 5.98724 25.8389 5.25249 25.8364C4.55553 25.8347 4.05458 25.4974 3.73094 25.1423C3.22625 24.5867 3.19868 24.4108 3.19868 23.4547C3.19868 22.9969 3.15138 6.36806 3.21026 5.8581C3.28053 5.26442 3.75476 4.79529 4.12639 4.5632C4.68961 4.2125 5.07723 4.11772 5.87664 4.11772C7.45145 4.11602 8.51647 3.9382 9.67406 4.7211C10.6593 5.38659 11.1994 6.34986 11.1977 7.60256C11.1954 9.0016 10.4316 9.87332 9.81427 10.6247C8.87363 11.7696 5.65186 14.3471 5.40564 15.0502Z" fill="#2156A7"/>
<path fill-rule="evenodd" clip-rule="evenodd" d="M57.3779 21.8054L60.7021 21.8129L60.6761 12.755C60.834 12.8953 62.9144 17.0966 63.0013 17.2722L65.3165 21.8168L69.7797 21.8129L69.7952 8.26661C69.4306 8.23496 66.772 8.22117 66.5331 8.28022L66.4645 17.1705C66.3522 17.0563 64.0248 12.2956 63.7073 11.618L62.035 8.25861L57.3927 8.2547L57.3779 21.8054Z" fill="#2156A7"/>
<path fill-rule="evenodd" clip-rule="evenodd" d="M87.9365 21.8225C88.4339 21.8755 92.2066 21.83 93.0406 21.83C95.8176 21.8339 99.3555 21.1853 98.9155 17.5584C98.7913 16.5213 98.2633 15.6849 97.421 15.2178C97.0186 14.9938 96.7975 15.064 96.4109 14.9425C96.391 14.6642 96.5356 14.8449 97.1489 14.4743C99.2117 13.2267 98.9948 10.0762 97.0383 8.90464C95.7546 8.13553 94.4607 8.27574 92.7905 8.27574C92.1493 8.27574 88.219 8.23132 87.9408 8.29854L87.9365 21.8225ZM91.5616 13.6299L91.5519 10.8453C92.1692 10.8108 93.3108 10.805 93.8456 10.9311C94.5022 11.0861 94.9913 11.4587 94.9772 12.2379C94.9535 13.6732 92.5357 13.7543 91.5616 13.6299ZM91.5575 19.2555L91.5519 16.0341C92.1316 15.9471 93.5339 16.055 94.0661 16.2034C94.7805 16.4027 95.3639 16.7617 95.3224 17.6443C95.2831 18.4973 94.7941 18.9016 94.0799 19.1049C93.5516 19.2545 92.1338 19.3275 91.5575 19.2555Z" fill="#2156A7"/>
<path fill-rule="evenodd" clip-rule="evenodd" d="M31.616 21.8239C34.6492 21.7081 40.9963 22.5498 42.2813 19.6624C42.5723 19.0119 42.6065 18.1392 42.5427 17.3435C42.445 16.1228 41.3347 15.1034 40.1397 14.9652C39.8967 14.9364 39.9692 14.9877 39.9127 14.8485C39.9876 14.7282 39.887 14.803 40.1149 14.744C40.2006 14.7224 40.2409 14.7166 40.3386 14.6841C40.5054 14.6259 40.6207 14.5645 40.7587 14.4808C41.4183 14.0787 42.1836 13.2167 42.1935 12.3124C42.2104 10.862 42.2212 9.80039 40.7203 8.93139C39.3982 8.16704 38.204 8.26573 36.5089 8.26573C34.8919 8.26573 33.2311 8.30317 31.6189 8.26182L31.616 21.8239ZM35.2497 10.8443C35.6945 10.7672 37.074 10.8363 37.5108 10.9359C38.2503 11.1026 38.5885 11.3856 38.5814 12.2279C38.5756 13.0087 38.0798 13.2808 37.4189 13.4739C36.9812 13.6005 35.6972 13.7147 35.2407 13.6141L35.2497 10.8443ZM35.24 16.116C35.6411 16.036 37.3038 16.0979 37.7071 16.1847C38.4405 16.3433 38.9273 16.7282 38.9285 17.5535C38.9295 18.3532 38.8103 18.6804 37.9792 18.9831C37.2664 19.2426 36.0622 19.3097 35.2407 19.2375V16.4716L35.24 16.116Z" fill="#2156A7"/>
<path fill-rule="evenodd" clip-rule="evenodd" d="M99.7513 21.8054L103.369 21.809L103.372 16.4686C104.067 16.3423 104.94 16.4871 105.36 16.8228C106.165 17.4703 106.486 18.9367 106.871 20.0085C106.973 20.2987 107.068 20.5862 107.156 20.8893C107.228 21.1263 107.344 21.6432 107.435 21.8129H111.103C111.142 21.3436 109.571 17.2722 109.217 16.3777C108.797 15.3071 108.352 15.4995 108.076 15.0348C109.192 14.9043 110.385 13.6741 110.491 12.5115C110.663 10.6743 110.268 9.62123 109.065 8.95455C107.772 8.23988 106.417 8.2586 104.761 8.2586C103.108 8.2586 101.398 8.21419 99.7549 8.26047L99.7513 21.8054ZM103.376 10.8282C104.81 10.8105 107.383 10.6873 106.845 12.8081C106.549 13.9717 104.663 13.9087 103.378 13.883L103.374 11.1392L103.376 10.8282Z" fill="#2156A7"/>
<path fill-rule="evenodd" clip-rule="evenodd" d="M71.0582 21.7946L74.679 21.812V15.6954C75.1478 15.9194 78.3077 21.174 78.9088 21.7136C79.0848 21.8713 79.4314 21.8159 79.7431 21.8159C80.3528 21.8159 83.1037 21.8473 83.4607 21.8084C83.4388 21.4138 81.3521 18.7772 81.0448 18.3707C80.187 17.2337 79.2876 16.1755 78.4533 15.0111C78.1142 14.5358 78.1499 14.5864 78.5103 14.1099L81.808 9.96146C82.0506 9.66776 82.9833 8.52362 83.1076 8.27127L78.8363 8.29289C78.6389 8.32351 77.8125 9.52755 77.6648 9.72868C77.1793 10.3892 76.678 11.0481 76.1813 11.6979C75.9843 11.9552 74.8051 13.5794 74.679 13.6396V8.26447L71.0582 8.26157V21.7946Z" fill="#2156A7"/>
<path fill-rule="evenodd" clip-rule="evenodd" d="M42.1868 21.8084C43.0677 21.8473 44.4244 21.8159 45.3621 21.8159C45.8023 21.8159 45.7902 21.7017 45.9687 21.3586C46.38 20.5666 46.5979 19.8082 46.8602 18.9285C47.3688 18.8658 50.6605 18.9051 51.4364 18.9062C51.7893 18.9068 51.8832 18.8658 52.0428 19.1476C52.2401 19.4968 52.5189 20.6111 52.6711 21.0547C52.9687 21.9261 53.0909 21.8062 53.6008 21.804L56.9257 21.7946L51.7823 8.26345L47.3938 8.26157C46.7553 9.29988 46.4754 10.4643 46.0158 11.5904C45.1679 13.668 44.2836 16.2663 43.4345 18.4081C43.1819 19.0443 42.2128 21.2349 42.1868 21.8084ZM49.5225 11.0974C49.6615 11.1941 50.5793 14.5625 50.7049 14.9942C50.8072 15.3456 51.0445 16.0181 51.0743 16.3453L47.7455 16.3465L48.6041 13.7145C48.755 13.2705 48.8796 12.8528 49.0341 12.4008C49.1122 12.1703 49.1844 11.9424 49.2511 11.7432C49.323 11.5264 49.3754 11.1871 49.5225 11.0974Z" fill="#2156A7"/>
<path fill-rule="evenodd" clip-rule="evenodd" d="M115.805 21.8159V8.26157H112.19L112.188 21.8138L115.805 21.8159Z" fill="#2156A7"/>
</svg>
