<?xml version="1.0" encoding="utf-8"?>
<!-- Generator: Adobe Illustrator 22.0.1, SVG Export Plug-In . SVG Version: 6.00 Build 0)  -->
<svg version="1.1" id="Layer_1" xmlns="http://www.w3.org/2000/svg" xmlns:xlink="http://www.w3.org/1999/xlink" x="0px" y="0px"
	 viewBox="0 0 248 66" style="enable-background:new 0 0 248 66;" xml:space="preserve">
<style type="text/css">
	.st0{fill:#49738E;}
	.st1{fill:#92B0C1;}
	.st2{fill:#3D627A;}
	.st3{fill:#92B0C1;stroke:#376281;stroke-width:0.6679;stroke-miterlimit:10;}
	.st4{fill:none;stroke:#376281;stroke-width:0.6679;stroke-miterlimit:10;}
	.st5{fill:#DDE6ED;}
	.st6{fill:#92B0C1;stroke:#376281;stroke-width:0.4415;stroke-miterlimit:10;}
	.st7{fill:none;stroke:#376281;stroke-width:0.4415;stroke-miterlimit:10;}
	.st8{fill:#FFFFFF;}
	.st9{font-family:'ArialRoundedMTStd-Light';}
	.st10{font-size:44.9671px;}
</style>
<title>Payment Gateway</title>
<path class="st0" d="M52.5,66H16c-8,0-14.5-6.5-14.5-14.5V15c0-8,6.5-14.5,14.5-14.5h36.5C60.5,0.5,67,7.1,67,15v36.5
	C67,59.5,60.5,66,52.5,66z"/>
<g>
	<path class="st1" d="M37.4,32.7L24.9,37c-0.5,0.2-1.1-0.1-1.3-0.6l-7.1-20.7c-0.2-0.5,0.1-1.1,0.6-1.3l12.5-4.3
		c0.5-0.2,1.1,0.1,1.3,0.6l7.1,20.7C38.2,32,38,32.5,37.4,32.7z"/>
	<path class="st2" d="M35.9,31.3l-10.6,3.6c-0.2,0.1-0.3,0-0.4-0.2l-6.3-18.5c-0.1-0.2,0-0.3,0.2-0.4l10.6-3.6
		c0.2-0.1,0.3,0,0.4,0.2l6.3,18.5C36.1,31.1,36,31.2,35.9,31.3z"/>
	<path class="st1" d="M34.8,30.6l-9.2,3.2c-0.1,0-0.3,0-0.3-0.2l-5.7-16.8c0-0.1,0-0.3,0.2-0.3l9.2-3.2c0.1,0,0.3,0,0.3,0.2L35,30.3
		C35,30.4,34.9,30.6,34.8,30.6z"/>
	<circle class="st2" cx="28.6" cy="26.6" r="5.7"/>
	<circle class="st1" cx="28.7" cy="27.1" r="5.3"/>
	<path class="st3" d="M21.3,15.7c0,0,1.5,2.2-1.2,3.1"/>
	<path class="st4" d="M30.3,15.1c0,0-2.3,1.2-3-1.5"/>
</g>
<g>
	<path class="st5" d="M46.5,25.9H31.4c-0.1,0-0.1-0.1-0.1-0.1v-12c0-0.7,0.6-1.4,1.4-1.4h12.8c0.7,0,1.4,0.6,1.4,1.4v11.9
		C46.8,25.8,46.7,25.9,46.5,25.9z"/>
	<path class="st0" d="M43.5,27.4h-9c-0.8,0-1.5-0.7-1.5-1.5v-8.6c0-0.8,0.7-1.5,1.5-1.5h9c0.8,0,1.5,0.7,1.5,1.5v8.6
		C45,26.8,44.4,27.4,43.5,27.4z"/>
	<rect x="34.4" y="17" class="st5" width="9.2" height="8.9"/>
	<path class="st0" d="M35,14.5L35,14.5c-0.2,0-0.3-0.1-0.3-0.3v0c0-0.2,0.1-0.3,0.3-0.3l0,0c0.2,0,0.3,0.1,0.3,0.3v0
		C35.3,14.4,35.2,14.5,35,14.5z"/>
	<path class="st0" d="M40.8,14.5H37c-0.2,0-0.3-0.1-0.3-0.3v0c0-0.2,0.1-0.3,0.3-0.3h3.8c0.2,0,0.3,0.1,0.3,0.3v0
		C41.2,14.4,41,14.5,40.8,14.5z"/>
</g>
<rect x="19.2" y="24.9" class="st0" width="35.1" height="26.6"/>
<g>
	<path class="st1" d="M226.8,27.6l-8.3,2.8c-0.3,0.1-0.7-0.1-0.8-0.4L213,16.4c-0.1-0.3,0.1-0.7,0.4-0.8l8.3-2.8
		c0.3-0.1,0.7,0.1,0.8,0.4l4.7,13.7C227.3,27.1,227.1,27.5,226.8,27.6z"/>
	<path class="st2" d="M225.8,26.7l-7,2.4c-0.1,0-0.2,0-0.2-0.1l-4.2-12.2c0-0.1,0-0.2,0.1-0.2l7-2.4c0.1,0,0.2,0,0.2,0.1l4.2,12.2
		C225.9,26.5,225.9,26.6,225.8,26.7z"/>
	<path class="st1" d="M225.1,26.2l-6.1,2.1c-0.1,0-0.2,0-0.2-0.1l-3.8-11.1c0-0.1,0-0.2,0.1-0.2l6.1-2.1c0.1,0,0.2,0,0.2,0.1
		l3.8,11.1C225.2,26.1,225.1,26.2,225.1,26.2z"/>
	<circle class="st2" cx="220.9" cy="23.6" r="3.7"/>
	<circle class="st1" cx="221" cy="23.9" r="3.5"/>
	<path class="st6" d="M216.1,16.4c0,0,1,1.5-0.8,2.1"/>
	<path class="st7" d="M222,16c0,0-1.5,0.8-2-1"/>
</g>
<g>
	<path class="st5" d="M232.8,23.1h-10c0,0-0.1,0-0.1-0.1v-7.9c0-0.5,0.4-0.9,0.9-0.9h8.4c0.5,0,0.9,0.4,0.9,0.9V23
		C233,23,232.9,23.1,232.8,23.1z"/>
	<path class="st0" d="M230.8,24.1h-5.9c-0.5,0-1-0.4-1-1v-5.7c0-0.5,0.4-1,1-1h5.9c0.5,0,1,0.4,1,1v5.7
		C231.8,23.7,231.4,24.1,230.8,24.1z"/>
	<rect x="224.8" y="17.2" class="st5" width="6.1" height="5.9"/>
	<path class="st0" d="M225.2,15.6L225.2,15.6c-0.1,0-0.2-0.1-0.2-0.2v0c0-0.1,0.1-0.2,0.2-0.2l0,0c0.1,0,0.2,0.1,0.2,0.2v0
		C225.4,15.5,225.3,15.6,225.2,15.6z"/>
	<path class="st0" d="M229,15.6h-2.5c-0.1,0-0.2-0.1-0.2-0.2v0c0-0.1,0.1-0.2,0.2-0.2h2.5c0.1,0,0.2,0.1,0.2,0.2v0
		C229.3,15.5,229.2,15.6,229,15.6z"/>
</g>
<rect x="214.7" y="22.5" class="st8" width="23.2" height="17.6"/>
<g>
	<path class="st5" d="M25.6,45.5c0,2.5-0.3,7.2,8.4,7.3c7.2,0.1,8.7-2.5,8.7-7.1l-0.1-16.3c0-2.2,0.8-2.4,2.4-2.4
		c1.6,0,1.6,1.2,1.6,2.3v16.2c0,6.8-3.9,10.9-12.5,10.9c-9.1,0-12.7-3.9-12.7-10.9V29.3c0-1,0-2.3,1.6-2.3c1.6,0,2.6,0.2,2.5,2
		L25.6,45.5z"/>
</g>
<text transform="matrix(1.0862 0 0 1 78.1811 49.7513)" class="st0 st9 st10">Sakuku</text>
</svg>
